# xmcd
#
# Track frame offsets: 
#        150
#        10841
#        22450
#        33310
#        46201
#        56533
#        65900
#        78026
#        88320
#        99045
#        110771
#        120916
#        133736
#        143227
#        154019
#        164404
#        173663
#        186745
#        197929
#        208639
#        220765
#        230634
#        241190
#        251905
#        263155
#        272164
#        285109
#        295575
#        305786
#        315757
#
# Disc length: 4352 seconds
#
# Revision: 0
# Processed by: cddbd v1.5.2PL0 Copyright (c) Steve Scherf et al.
# Submitted via: ExactAudioCopy v1.0b1
#
DISCID=b410fe1e
DTITLE=Johnny Horton - North To Alaska And Other Great Hits
DYEAR=2012
DGENRE=Country
TTITLE0=Plaid And Calico
TTITLE1=Coal Smoke, Valve Oil And Steam
TTITLE2=Devilish Love Light
TTITLE3=Done Rovin'
TTITLE4=Mean, Mean Son Of A Gun
TTITLE5=Gobbler The Houn' Dog
TTITLE6=Shadows On The Old Bayou
TTITLE7=In My House In Shelby County
TTITLE8=Go And Wash Your Dirty Feet
TTITLE9=Smokey Joe's Barbecue
TTITLE10=It's A Long Rocky Road
TTITLE11=Words
TTITLE12=Broken Hearted Gypsy
TTITLE13=First Train Headin' South
TTITLE14=Move Down The Line
TTITLE15=The S.S. Lureline
TTITLE16=The Child's Side Of Life
TTITLE17=All For The Love Of A Girl
TTITLE18=The Mansion You Stole
TTITLE19=The Train With A Rhumba Beat
TTITLE20=Two Red Lips And Warm Red Wine
TTITLE21=Ridin' The Sunshine Special
TTITLE22=Big Wheels Rollin'
TTITLE23=Devil Made A Masterpiece
TTITLE24=Hot In The Sugarcane Field
TTITLE25=Lonesome And Heartbroken
TTITLE26=Seven Comes Eleven
TTITLE27=I Can't Forget You
TTITLE28=Wise To The Ways Of A Woman
TTITLE29=Out In New Mexico
EXTD=
EXTT0=
EXTT1=
EXTT2=
EXTT3=
EXTT4=
EXTT5=
EXTT6=
EXTT7=
EXTT8=
EXTT9=
EXTT10=
EXTT11=
EXTT12=
EXTT13=
EXTT14=
EXTT15=
EXTT16=
EXTT17=
EXTT18=
EXTT19=
EXTT20=
EXTT21=
EXTT22=
EXTT23=
EXTT24=
EXTT25=
EXTT26=
EXTT27=
EXTT28=
EXTT29=
PLAYORDER=
